<svg height="512" viewBox="0 0 64 64" width="512" xmlns="http://www.w3.org/2000/svg"><g id="Gold"><path d="m29 23 3 10 3-10z" fill="#cc7400"/><path d="m20 33 3 10 3-10z" fill="#cc7400"/><path d="m38 33 3 10 3-10z" fill="#cc7400"/><path d="m38.887 48.2a6.994 6.994 0 0 1 -9.836-1.115l5.476-4.36 2.242 2.816z" fill="#91dc5a"/><path d="m32 33h-6l-3 10h18l-3-10z" fill="#ff9811"/><path d="m41 43h18l-3-10h-6-6z" fill="#ff9811"/><path d="m26 33h6l-3-10h-6-6l-3 10h6z" fill="#ffa733"/><path d="m32 33h6 6 6l-3-10h-6-6z" fill="#ffa733"/><path d="m35 23h6l-3-10h-12l-3 10h6z" fill="#ff9811"/><path d="m20 33h-6-6l-3 10h18z" fill="#ff9811"/><path d="m41 43h-18-18-2v4h2 54 2v-4h-2z" fill="#58595b"/><path d="m6.509 57.566a4 4 0 0 0 3.96 3.434h43.062a4 4 0 0 0 3.96-3.434l1.509-10.566h-54z" fill="#a7a9ac"/><path d="m58.571 50 .429-3h-54l.429 3z" fill="#939598"/><g fill="#ee8700"><path d="m38 13h-.06c-.6 5.61-6.154 10-12.94 10h16z"/><path d="m56 33h-.06c-.6 5.61-6.154 10-12.94 10h16z"/><path d="m38 33h-.06c-.6 5.61-6.154 10-12.94 10h16z"/><path d="m20 33h-.06c-.6 5.61-6.154 10-12.94 10h16z"/></g><path d="m47 23h-.06c-.6 5.61-6.154 10-12.94 10h16z" fill="#e5890f"/><path d="m29 23h-.06c-.6 5.61-6.154 10-12.94 10h16z" fill="#e5890f"/><path d="m32 8a1 1 0 0 1 -1-1v-4a1 1 0 0 1 2 0v4a1 1 0 0 1 -1 1z" fill="#ff5023"/><path d="m24 10.144a1 1 0 0 1 -.867-.5l-2-3.464a1 1 0 1 1 1.732-1l2 3.464a1 1 0 0 1 -.865 1.5z" fill="#ff5023"/><path d="m40 10.144a1 1 0 0 1 -.865-1.5l2-3.464a1 1 0 1 1 1.732 1l-2 3.464a1 1 0 0 1 -.867.5z" fill="#ff5023"/></g></svg>